<?xml version="1.0" standalone="no"?>
<!DOCTYPE svg PUBLIC "-//W3C//DTD SVG 20010904//EN"
 "http://www.w3.org/TR/2001/REC-SVG-20010904/DTD/svg10.dtd">
<svg version="1.0" xmlns="http://www.w3.org/2000/svg"
 width="1280.000000pt" height="1272.000000pt" viewBox="0 0 1280.000000 1272.000000"
 preserveAspectRatio="xMidYMid meet">
<metadata>
Created by potrace 1.15, written by Peter Selinger 2001-2017
</metadata>
<g transform="translate(0.000000,1272.000000) scale(0.100000,-0.100000)"
fill="#000000" stroke="none">
<path d="M6070 12709 c-1842 -109 -3487 -925 -4627 -2294 -734 -882 -1216
-1976 -1377 -3130 -49 -353 -60 -514 -60 -920 -1 -434 16 -669 74 -1033 241
-1500 1012 -2853 2185 -3832 1017 -849 2236 -1347 3615 -1477 262 -24 902 -24
1155 0 995 97 1856 367 2665 837 752 437 1423 1052 1935 1775 998 1409 1378
3232 1040 4986 -101 523 -304 1119 -546 1601 -810 1616 -2273 2816 -4004 3282
-643 173 -1370 246 -2055 205z m716 -3014 c922 -97 1744 -579 2282 -1338 153
-216 316 -523 405 -762 196 -529 266 -1110 202 -1682 -123 -1105 -703 -2006
-1613 -2508 -337 -185 -724 -309 -1157 -371 -153 -21 -597 -30 -766 -15 -671
61 -1289 307 -1804 717 -140 112 -396 368 -504 504 -300 377 -509 798 -626
1260 -79 309 -100 499 -99 870 0 306 10 419 55 660 85 444 255 867 494 1225
140 210 235 326 415 505 552 551 1263 873 2085 943 121 11 500 6 631 -8z"/>
</g>
</svg>
